<svg width="81" height="21" viewBox="0 0 81 21" fill="none" xmlns="http://www.w3.org/2000/svg">
<path fill-rule="evenodd" clip-rule="evenodd" d="M8.50341 17.16L8.47438 17.1027L0 11.8029L3.01827 9.62563L5.51415 0L8.53243 2.17723L18.603 1.54698L17.4421 5.042L21.1569 14.2952H17.4131L17.3841 14.3239L9.63526 20.655L8.50341 17.16Z" fill="#F9F9F9"/>
<path fill-rule="evenodd" clip-rule="evenodd" d="M8.50369 17.0736V17.1309L14.3661 14.2661L15.4689 14.2947H17.3844H17.4134L17.2973 13.4353L16.4847 7.9063L17.4424 5.07018H17.4134L17.3263 5.04153L10.9996 3.95292L8.53271 2.17676V2.20541L7.77814 3.5805L5.48541 7.87765L3.13464 9.56787L3.01855 9.65381L7.57499 14.2661L8.50369 17.0736Z" fill="#E52D33"/>
<path fill-rule="evenodd" clip-rule="evenodd" d="M28.644 14.0664V12.5767C29.2825 13.0064 29.921 13.2069 30.5595 13.2069C31.227 13.2069 31.7494 13.0351 32.1267 12.7199C32.533 12.4048 32.7361 11.9464 32.7361 11.4021C32.7361 10.8578 32.533 10.4568 32.1267 10.1416C31.7204 9.82652 31.1399 9.68328 30.3854 9.68328C30.1242 9.68328 29.6308 9.71193 28.9343 9.76922V4.78452H33.897V6.10231H30.3273V8.48007C30.6175 8.45143 30.8787 8.45143 31.1399 8.45143C32.1557 8.45143 32.9393 8.70925 33.5197 9.22491C34.0711 9.74057 34.3613 10.4568 34.3613 11.3448C34.3613 12.2902 34.0421 13.0351 33.4036 13.608C32.7651 14.181 31.8945 14.4674 30.7626 14.4674C29.8339 14.4674 29.1374 14.3242 28.6731 14.0664H28.644ZM47.16 4.78452L44.1707 11.3735C43.6193 12.5767 43.0679 13.3788 42.5745 13.8085C42.0521 14.2383 41.5007 14.4674 40.8913 14.4674C40.3979 14.4674 39.9916 14.4101 39.6723 14.2669V12.7486C40.0496 12.9778 40.4269 13.0924 40.8042 13.0924C41.1234 13.0924 41.4137 12.9778 41.6749 12.7486C41.9361 12.5194 42.2263 12.0897 42.5455 11.4881L39.3241 4.81317H41.1525L43.1259 9.31086C43.155 9.3968 43.242 9.62598 43.3581 9.9984C43.3581 9.94111 43.4452 9.71192 43.6193 9.31086L45.5057 4.81317H47.189L47.16 4.78452ZM53.6319 6.18826H49.888V14.3242H48.2918V4.81317H53.6319V6.18826ZM61.6709 14.3242V4.81317H56.418C56.1277 7.07634 55.8375 8.88114 55.6053 10.1989C55.3442 11.5167 55.112 12.3475 54.8798 12.6626C54.6476 12.9778 54.3864 13.121 54.1252 13.121C53.864 13.121 53.6319 13.0637 53.3997 12.9491V14.2956C53.6899 14.4101 54.0382 14.4388 54.4154 14.4388C54.8798 14.4388 55.2861 14.3242 55.6053 14.095C55.9246 13.8658 56.1858 13.5507 56.3889 13.0924C56.5921 12.634 56.7662 11.9464 56.9694 11.0011C57.1435 10.0557 57.4047 8.42278 57.753 6.13096H60.1037V14.2669H61.6999L61.6709 14.3242ZM68.0557 14.4388C66.6627 14.4388 65.5598 14.0091 64.7182 13.0924C63.8766 12.2043 63.4703 11.0584 63.4703 9.62598C63.4703 8.10765 63.9056 6.8758 64.7472 5.95907C65.5889 5.04235 66.7497 4.58398 68.2008 4.58398C69.5649 4.58398 70.6387 5.0137 71.4803 5.90178C72.2929 6.78986 72.7282 7.93577 72.7282 9.36815C72.7282 10.9151 72.2929 12.147 71.4513 13.0351C70.6096 13.9231 69.4778 14.4388 68.0557 14.4388ZM68.1428 5.95907C67.2721 5.95907 66.5466 6.2742 65.9952 6.9331C65.4438 7.59199 65.1535 8.45143 65.1535 9.51139C65.1535 10.5714 65.4147 11.4308 65.9661 12.061C66.4885 12.7199 67.2141 13.0351 68.0847 13.0351C69.0134 13.0351 69.739 12.7199 70.2614 12.1183C70.7838 11.5167 71.074 10.6573 71.074 9.54004C71.074 8.39413 70.8128 7.5347 70.2904 6.90445C69.768 6.2742 69.0715 5.98772 68.1428 5.98772V5.95907ZM74.4986 14.2669V4.75587H77.5459C78.4746 4.75587 79.2001 4.9564 79.7515 5.35747C80.3029 5.75854 80.5641 6.2742 80.5641 6.9331C80.5641 7.4774 80.419 7.93577 80.0998 8.33683C79.7806 8.7379 79.3742 9.02438 78.8228 9.19627V9.22491C79.4903 9.31086 80.0127 9.54004 80.419 9.94111C80.8253 10.3422 80.9995 10.8865 80.9995 11.5454C80.9995 12.3475 80.6802 13.0064 80.0417 13.5221C79.4033 14.0377 78.5616 14.2669 77.5749 14.2669H74.4986ZM76.0948 6.01637V8.70925H77.1396C77.691 8.70925 78.1263 8.56602 78.4455 8.30819C78.7648 8.05036 78.9099 7.67794 78.9099 7.21957C78.9099 6.41744 78.3585 5.98772 77.2557 5.98772H76.0948V6.01637ZM76.0948 9.96975V12.9778H77.4588C78.0392 12.9778 78.5036 12.8345 78.8519 12.5767C79.1711 12.3189 79.3452 11.9178 79.3452 11.4594C79.3452 10.4854 78.6487 9.96975 77.2847 9.96975H76.1238H76.0948Z" fill="#F9F9F9"/>
</svg>
