<svg id="Ebene_1" xmlns="http://www.w3.org/2000/svg" width="279.1" height="84.8" viewBox="0 0 279.1 84.8"><style>.st0,.st1{fill-rule:evenodd;clip-rule:evenodd;fill:#2b2a29}.st1{fill:#ef7f2f}</style><path class="st0" d="M127.9 50.7c0 2.6-.7 4.4-2.1 5.7-1.4 1.2-3.3 1.8-5.7 1.8H109V34h16.5l-1.2 3.7h-11.4v5.9h7.3c2.4 0 4.3.6 5.6 1.8 1.4 1.1 2.1 2.9 2.1 5.3zm-3.8 0c0-1.3-.4-2.3-1.1-2.8-.8-.5-1.9-.7-3.4-.7h-6.7v7.4h6.5c.7 0 1.4-.1 2-.2s1.1-.3 1.5-.6c.4-.3.7-.7.9-1.2.1-.5.3-1.2.3-1.9zm9.2-1.1l.7-8.9h12.2v17.6h-3.8V43.9h-5.1l-.5 5.9c-.1 1.3-.3 2.4-.5 3.5s-.6 2-1 2.8c-.4.8-.9 1.4-1.5 1.9s-1.3.7-2.2.7c-.5 0-1-.2-1.5-.4v-3h.5c.1 0 .2-.1.4-.1.4-.1.8-.4 1.1-.7.3-.4.5-.8.7-1.4.2-.5.3-1.1.4-1.7-.1-.7 0-1.3.1-1.8zm22.7 5.6c.4 0 .9-.1 1.4-.3l1.5-.6c.5-.3 1-.5 1.5-.8.5-.3.9-.5 1.3-.7V51h-6.1c-.7 0-1.3.2-1.7.6-.4.4-.6 1-.6 1.7 0 .8.3 1.3.8 1.6.5.2 1.1.3 1.9.3zm2-15c1 0 1.9.1 2.8.4.9.3 1.7.7 2.4 1.2s1.2 1.2 1.6 2c.4.8.6 1.7.6 2.7v7.6c0 .8.1 1.5.2 2.1.2.6.4 1.2.8 1.9h-4c-.2-.3-.3-.6-.4-1-.1-.4-.2-.8-.2-1.1-1 .7-1.9 1.3-2.9 1.8s-2.1.7-3.3.7c-.8 0-1.5-.1-2.3-.4-.7-.3-1.4-.6-1.9-1.1-.6-.5-1-1-1.3-1.7-.3-.7-.5-1.4-.5-2.2 0-.9.2-1.6.5-2.3.3-.7.7-1.3 1.3-1.8.5-.5 1.2-.9 1.9-1.1.7-.3 1.5-.4 2.4-.4h6.1v-.4c0-1.3-.3-2.2-.9-2.8-.6-.6-1.5-.8-2.7-.9-1.1 0-2 .1-2.8.3-.8.2-1.6.6-2.5 1l-1.6-2.8c1.1-.6 2.3-1.1 3.3-1.4.9-.1 2.1-.3 3.4-.3zm15.6 3.7v14.3h-3.8V40.6h11l-1 3.2h-6.2v.1zm22.5 5.5v-.7c0-1.5-.4-2.8-1.2-3.7-.8-1-2.1-1.4-3.9-1.4-1.8 0-3 .5-3.8 1.4-.8 1-1.2 2.2-1.2 3.8v.8c0 .8.1 1.6.2 2.3.1.7.4 1.3.8 1.8s.9.9 1.5 1.2c.6.3 1.5.4 2.5.4s1.9-.1 2.5-.4c.7-.3 1.2-.7 1.6-1.2.4-.5.7-1.1.8-1.8.1-.9.2-1.7.2-2.5zm-5.1 9.2c-1.4 0-2.6-.2-3.7-.7-1.1-.5-2-1.1-2.7-2-.7-.8-1.3-1.8-1.6-2.9-.4-1.1-.6-2.3-.6-3.6v-.7c0-1.2.2-2.4.6-3.4.4-1 1-1.9 1.7-2.7.7-.8 1.6-1.3 2.7-1.8 1-.4 2.2-.6 3.5-.6 1.2 0 2.4.2 3.4.6 1.1.4 2 1 2.8 1.8.8.7 1.4 1.6 1.8 2.7.4 1 .7 2.2.7 3.4v.7c0 1.3-.2 2.5-.6 3.6-.4 1.1-.9 2.1-1.7 2.9-.7.8-1.7 1.5-2.7 2-1 .5-2.2.7-3.6.7zm11.1 4.6V55c.5 0 1 0 1.3-.1.4-.1.7-.3 1-.6.1-.1.3-.3.4-.5.1-.2.3-.4.4-.6.1-.2.2-.5.3-.8.1-.3.2-.6.4-1 .3-.9.6-1.8.8-2.7.2-.9.3-1.8.4-2.7.1-1.8.2-3.8.2-5.8V34h15.2v21h2.3v8.2H221v-5h-15.6v5h-3.3zm16.4-8.2V37.6H211v4.5c0 .6 0 1.3-.1 1.9 0 .7-.1 1.3-.1 1.9 0 .6-.1 1.2-.2 1.8-.2 1.3-.4 2.5-.8 3.7l-.6 1.8c-.2.6-.5 1.1-.8 1.7h10.1v.1zm15.5.2c.4 0 .9-.1 1.4-.3l1.5-.6c.5-.3 1-.5 1.5-.8.5-.3.9-.5 1.3-.7V51h-6.1c-.7 0-1.3.2-1.7.6-.4.4-.6 1-.6 1.7 0 .8.3 1.3.8 1.6.5.2 1.2.3 1.9.3zm2.1-15c1 0 1.9.1 2.8.4.9.3 1.7.7 2.4 1.2s1.2 1.2 1.6 2c.4.8.6 1.7.6 2.7v7.6c0 .8.1 1.5.2 2.1.2.6.4 1.2.8 1.9h-4c-.2-.3-.3-.6-.4-1-.1-.4-.2-.8-.2-1.1-1 .7-1.9 1.3-2.9 1.8s-2.1.7-3.3.7c-.8 0-1.5-.1-2.3-.4-.7-.3-1.4-.6-1.9-1.1-.6-.5-1-1-1.3-1.7-.3-.7-.5-1.4-.5-2.2 0-.9.2-1.6.5-2.3.3-.7.7-1.3 1.3-1.8.5-.5 1.2-.9 1.9-1.1.7-.3 1.5-.4 2.4-.4h6.1v-.4c0-1.3-.3-2.2-.9-2.8-.6-.6-1.5-.8-2.7-.9-1.1 0-2 .1-2.8.3-.8.2-1.6.6-2.5 1l-1.6-2.8c1.1-.6 2.3-1.1 3.3-1.4.9-.1 2.1-.3 3.4-.3zm19.7 3.7v14.3H252V43.9h-5.7v-3.2h15.1l-.8 3.2h-4.8zm23.3 8.8c0 1-.1 1.8-.4 2.5-.3.7-.7 1.3-1.2 1.7-.5.5-1.2.8-1.9 1-.7.2-1.5.3-2.4.3H264V41.1l3.8-.9V47h5.5c1.8 0 3.2.5 4.3 1.4 1 .9 1.5 2.3 1.5 4.3zm-3.8 0c0-1-.2-1.6-.7-1.9-.5-.3-1.2-.4-2.1-.4h-4.7v4.5h6c.3 0 .6-.1.9-.2.2-.1.4-.3.5-.6 0-.5.1-.9.1-1.4z"/><path class="st1" d="M4.1 62.1C1.5 56.7 0 50.7 0 44.4 0 21.2 19.3 3.2 41.9 4.2l-.6 12.4H40c-15.3 0-27.6 12.5-27.6 27.8 0 8.3 3.6 15.7 9.3 20.8-.3.9-.1 1.9.3 2.8-2.9-1.6-5.6-3.5-7.1-4.7-1.7-1.3-3.3-1.9-5.1-2.1-1.7-.2-3.3.1-5.2.7l-.5.2zm1.3 2.5c10.1 17.6 27.9 22.1 45.8 19.5 10.7-1.5 15.3-4.2 27.4-2.3-6-9.2-10.4-13.5-16.3-16.4-10.2-5-13.8-3.3-23.5-1.2-3.1.7-7.3 1.3-13.6 1.4-1.9 0-.1 2.4 1.3 3.2 3.7 2.2 13.9 1.4 15.7.9 4.1-1.2-1 5.1-13.3 3.8-5.2-.6-12.6-5.7-15.7-8-2.5-1.8-4.8-1.9-7.8-.9zm30.5-21.9c-1.6 0-2.8 1.3-2.8 2.9v6.7c0 1.6 1.3 2.9 2.8 2.9H44c1.6 0 2.8-1.3 2.8-2.9v-6.7c0-1.6-1.3-2.9-2.8-2.9h-8.1zm.5 6.5c-.8 0-1.5.7-1.5 1.5v1.2c0 .8.7 1.5 1.5 1.5h1.7c.8 0 1.5-.7 1.5-1.5v-1.2c0-.8-.7-1.5-1.5-1.5h-1.7zm5.5 0c-.8 0-1.5.7-1.5 1.5v1.2c0 .8.7 1.5 1.5 1.5h1.7c.8 0 1.5-.7 1.5-1.5v-1.2c0-.8-.7-1.5-1.5-1.5h-1.7zm-5.5-4.9c-.8 0-1.5.7-1.5 1.5V47c0 .8.7 1.5 1.5 1.5h1.7c.8 0 1.5-.7 1.5-1.5v-1.2c0-.8-.7-1.5-1.5-1.5h-1.7zm5.5 0c-.8 0-1.5.7-1.5 1.5V47c0 .8.7 1.5 1.5 1.5h1.7c.8 0 1.5-.7 1.5-1.5v-1.2c0-.8-.7-1.5-1.5-1.5h-1.7zm3-19.5c-5.6-5.3-3.7-5.8-9.7 0l-6.4 6-6.4 6c-5.1 4.8-7 4.7 1.7 4.6V63c.3-.1.6-.1 1-.1 3-.1 5.6-.2 7.8-.5 2.1-.2 3.8-.5 5.3-.9 1.6-.4 2.2-.5 2.8-.6 6-1.4 9.8-2.2 15.1-.9V41.4c7.7.1 7.1.5 1.6-4.6l-6.4-6-6.4-6zM80 44.4c0 9.2-3 17.6-8.2 24.4-1.5-1.5-3.2-2.8-5-3.9-1.7-1.1-3.5-2-5.4-2.9 3.9-4.8 6.2-10.9 6.2-17.6H80zm-12.4-1.3H85v-1.6c0-.3 0-.6-.1-.9 0-.2 0-.4-.1-.7l-17.4 1.7c.1.5.2 1 .2 1.5zm-.2-2.5c-.1-.7-.2-1.3-.3-2l11.8-2.7.3 1.5c.1.5.2 1.1.2 1.6l-12 1.6zm-1.3-5.3l12.5-4.2c-.2-.5-.3-1-.5-1.5l-.6-1.5-12.1 5.3c.3.7.5 1.3.7 1.9zm-1.3-3.2c-.2-.5-.5-.9-.7-1.4l14-9.1c.3.5.6.9.8 1.4.3.5.5.9.8 1.4l-14.9 7.7zm-3-4.7c-.4-.5-.8-1.1-1.3-1.6l8.9-8.2c.4.4.7.8 1 1.2.3.4.7.8 1 1.2l-9.6 7.4zm-4.3-4.5c-.4-.4-.9-.7-1.3-1L66 9c.4.3.8.7 1.2 1 .4.3.8.7 1.2 1L57.5 22.9zm-2.8-2c-.6-.4-1.2-.7-1.8-1L58.5 9c.5.3.9.5 1.4.8.5.3.9.5 1.3.8l-6.5 10.3zm-5.5-2.7l4.5-11.4c-.5-.2-1-.4-1.5-.5-.5-.2-1-.3-1.5-.5l-3.4 11.8c.7.1 1.3.3 1.9.6zm-3.4-1c-.5-.1-1-.2-1.6-.3L46.3.1c.5.1 1 .2 1.6.2.5.1 1 .2 1.6.3l-3.7 16.6zM59.6.6c-.4-.2-.8-.4-1.3-.6l-6.1 14.7c.2.1.5.2.7.3.2.1.5.2.7.3l7.2-14.1-1.2-.6zm14.6 8.8c.3.3.6.7 1 1L63.5 21.1c-.2-.2-.3-.4-.5-.5l-.5-.5L73.2 8.4l1 1zm5.7 7.6c-.3-.4-.5-.8-.8-1.1l-12.5 9.6c.2.2.3.4.4.6.1.2.3.4.4.6l13.3-8.6c-.3-.4-.6-.8-.8-1.1zm4.5 15.3c-.1-.4-.2-.9-.4-1.3l-15 4.7c.1.2.1.5.2.7.1.2.1.5.2.7l15.4-3.5c-.1-.4-.3-.9-.4-1.3z"/><path class="st0" d="M110.7 75.1c0 .6 0 1.1.1 1.6s.2.9.5 1.2c.2.3.5.6.9.7.4.2.9.3 1.6.3.5 0 .9-.1 1.2-.2.3-.1.7-.3 1-.7l1.1 1c-.4.5-.9.8-1.5 1-.6.2-1.2.3-1.8.3-.9 0-1.6-.1-2.2-.4-.6-.3-1.1-.6-1.5-1.1-.4-.5-.7-1-.9-1.7-.2-.6-.3-1.4-.3-2.2v-.5c0-.8.1-1.4.3-2 .2-.6.5-1.1.9-1.5.4-.4.9-.7 1.5-.9.6-.2 1.3-.3 2.1-.3.6 0 1.2.1 1.8.3.6.2 1.1.5 1.5 1l-1.1 1.1c-.3-.3-.6-.5-1-.7-.3-.1-.7-.2-1.2-.2-1.1 0-1.8.3-2.3.8-.5.6-.7 1.4-.7 2.4v.7zm11.2-1v6.1h-1.6v-6.1h-2.4v-1.4h6.4l-.3 1.4h-2.1zm7.2-1.5c.6 0 1 .1 1.5.3.4.2.8.4 1.1.7.3.3.5.7.7 1.1.2.4.2.9.2 1.4v.9c0 .6-.1 1-.2 1.5-.2.4-.4.8-.7 1.1-.3.3-.6.5-1.1.6-.4.1-.9.2-1.4.2-.4 0-.8-.1-1.2-.3-.4-.2-.7-.4-1-.7v3.7h-1.6v-8.5c0-.3 0-.5-.1-.7 0-.2-.1-.4-.2-.7l1.4-.7c.1.1.1.3.2.4.1.1.1.3.1.5h.1c.3-.3.6-.5.9-.7.6-.1 1-.1 1.3-.1zm0 1.4c-.4 0-.8.1-1.1.3-.4.2-.7.5-.9.8v2.7l.4.4c.2.1.3.3.5.4l.6.3c.2.1.4.1.6.1.3 0 .6-.1.8-.2.2-.1.4-.2.5-.4l.3-.6c0-.2.1-.5.1-.8v-.8c0-.3 0-.6-.1-.9-.1-.3-.2-.5-.3-.7-.1-.2-.3-.4-.6-.5-.1-.1-.4-.1-.8-.1zm10.6 2.5v-.3c0-.7-.2-1.2-.5-1.6-.3-.4-.9-.6-1.6-.6-.8 0-1.3.2-1.6.6-.3.4-.5.9-.5 1.6v.3c0 .4 0 .7.1 1 .1.3.2.5.3.8.2.2.4.4.7.5.3.1.6.2 1.1.2.4 0 .8-.1 1.1-.2.3-.1.5-.3.7-.5.2-.2.3-.5.3-.8-.2-.3-.1-.7-.1-1zm-2.2 3.9c-.6 0-1.1-.1-1.6-.3-.5-.2-.8-.5-1.1-.8-.3-.4-.5-.8-.7-1.2-.2-.5-.2-1-.2-1.5v-.3c0-.5.1-1 .3-1.5.2-.4.4-.8.7-1.2.3-.3.7-.6 1.1-.8.4-.2.9-.3 1.5-.3.5 0 1 .1 1.5.3.5.2.8.4 1.2.7.3.3.6.7.8 1.1.2.4.3.9.3 1.4v.3c0 .6-.1 1.1-.2 1.5-.2.5-.4.9-.7 1.2-.3.4-.7.6-1.2.8-.6.5-1.1.6-1.7.6zm10-.2v-5.1l-3.2 5.1h-1.7V73l1.6-.4v5.3l3.2-5.1h1.7v7.5h-1.6v-.1zm6.7-6.1v6.1h-1.6v-6.1h-2.4v-1.4h6.4l-.3 1.4h-2.1zm4.9 2.9c0 .3 0 .6.1.8.1.2.2.5.4.6.2.2.4.3.7.4.3.1.6.1 1.1.1.4 0 .7-.1.9-.2.2-.1.4-.3.7-.5l1.3.5c-.3.5-.7.9-1.3 1.2-.5.3-1.1.4-1.7.4-1.2 0-2.2-.3-2.8-1-.6-.6-1-1.6-1-2.8v-.9c0-.5.1-.9.3-1.3.2-.4.5-.7.8-1 .3-.3.7-.5 1.1-.6.4-.1.9-.2 1.4-.2.5 0 1 .1 1.5.3.4.2.8.4 1.1.7.3.3.5.7.7 1.1.2.4.2.9.2 1.5v.9h-5.5zm0-1.4h3.8c0-.2 0-.5-.1-.7s-.2-.4-.4-.5l-.6-.3c-.2-.1-.5-.1-.7-.1-.2 0-.5 0-.7.1-.2.1-.5.2-.6.3-.2.1-.3.3-.5.5s-.2.4-.2.7zm8 .9l.3-3.8h5.2v7.5H171v-6.1h-2.2l-.2 2.5c0 .5-.1 1-.2 1.5s-.2.9-.4 1.2c-.2.3-.4.6-.7.8-.3.2-.6.3-.9.3-.2 0-.4-.1-.7-.2V79h.4c.2 0 .3-.2.5-.3l.3-.6c.1-.2.1-.5.2-.7-.1-.4-.1-.6 0-.9zm13.7 1.4c0 .4-.1.8-.2 1.1-.1.3-.3.5-.5.7-.2.2-.5.3-.8.4-.3.1-.7.1-1 .1h-3.9v-7.3l1.6-.4v2.9h2.4c.8 0 1.4.2 1.8.6.4.4.6 1 .6 1.9zm-1.6 0c0-.4-.1-.7-.3-.8-.2-.1-.5-.2-.9-.2h-2v1.9h2.5c.1 0 .3 0 .4-.1.1-.1.2-.1.2-.3.1-.1.1-.3.1-.5zm9.3-5.3v7.7h-1.6V77h-3.2v3.3h-1.6V73l1.6-.5v2.9h3.2V73l1.6-.4zm4.2 6.4c.2 0 .4 0 .6-.1.2-.1.4-.2.7-.3l.6-.3c.2-.1.4-.2.5-.3v-.8h-2.6c-.3 0-.6.1-.7.3-.2.2-.2.4-.2.7 0 .3.1.6.3.7.2 0 .5.1.8.1zm.9-6.4c.4 0 .8.1 1.2.2.4.1.7.3 1 .5.3.2.5.5.7.9.2.3.3.7.3 1.2v3.2c0 .3 0 .6.1.9.1.3.2.5.3.8h-1.7c-.1-.1-.1-.2-.2-.4 0-.2-.1-.3-.1-.5-.4.3-.8.5-1.3.7-.4.2-.9.3-1.4.3-.3 0-.7-.1-1-.2-.3-.1-.6-.3-.8-.5-.2-.2-.4-.4-.6-.7-.1-.3-.2-.6-.2-.9 0-.4.1-.7.2-1 .1-.3.3-.5.5-.8.2-.2.5-.4.8-.5.3-.1.6-.2 1-.2h2.6v-.2c0-.5-.1-.9-.4-1.2-.3-.2-.6-.4-1.2-.4-.5 0-.9 0-1.2.1-.3.1-.7.2-1.1.4l-.7-1.2c.5-.3 1-.5 1.4-.6.7.1 1.2.1 1.8.1zm6.7 4.7c-.6-.1-1.1-.3-1.4-.7-.3-.4-.4-.9-.4-1.7 0-.4.1-.7.2-1 .2-.3.4-.5.6-.7.3-.2.5-.3.9-.4.3-.1.6-.1 1-.1h3.7v7.5h-1.6v-2.7h-.7c-.1 0-.2 0-.3.1-.1 0-.2.1-.3.2l-1.1 1.7c-.2.3-.4.5-.7.7-.3.2-.6.3-.9.3-.1 0-.2 0-.4-.1-.2 0-.3-.1-.4-.1V79c.2 0 .4 0 .6-.1s.4-.2.5-.3l.7-1.3zm2.9-3.2h-2c-.4 0-.7.1-.8.3-.2.2-.3.4-.3.7 0 .3.1.6.2.7.2.2.4.2.9.2h2v-1.9zm9.5-1.5v3.2h.6l2.2-3h1.6l-2.5 3.6 1.6 2.2c.1.2.3.3.5.3h.5v1.2c-.1.1-.3.1-.4.1h-.4c-.1 0-.3 0-.4-.1-.1-.1-.2-.1-.3-.2l-.3-.3c-.1-.1-.2-.2-.2-.3l-1.8-2.5h-.5v3.3h-1.6V73l1.4-.4zm11.5 3.9v-.3c0-.7-.2-1.2-.5-1.6-.3-.4-.9-.6-1.6-.6s-1.3.2-1.6.6c-.3.4-.5.9-.5 1.6v.3c0 .4 0 .7.1 1 .1.3.2.5.3.8.2.2.4.4.7.5.3.1.6.2 1.1.2.4 0 .8-.1 1.1-.2.3-.1.5-.3.7-.5.2-.2.3-.5.3-.8-.1-.3-.1-.7-.1-1zm-2.2 3.9c-.6 0-1.1-.1-1.6-.3-.5-.2-.8-.5-1.1-.8-.3-.4-.5-.8-.7-1.2-.2-.5-.2-1-.2-1.5v-.3c0-.5.1-1 .3-1.5.2-.4.4-.8.7-1.2.3-.3.7-.6 1.1-.8.4-.2.9-.3 1.5-.3.5 0 1 .1 1.5.3.5.2.8.4 1.2.7.3.3.6.7.8 1.1.2.4.3.9.3 1.4v.3c0 .6-.1 1.1-.2 1.5-.2.5-.4.9-.7 1.2-.3.4-.7.6-1.2.8-.5.5-1.1.6-1.7.6zm13.4-7.7v7.5H234v-5.5l-2 4.4h-1.4l-2-4.5v5.6h-1.5v-7.5h2.3l1.8 4 1.8-4h2.4zm3.5 1.4v6.1h-1.6v-7.5h6.2v7.5h-1.6v-6.1h-3zm8.8 4.9c.2 0 .4 0 .6-.1.2-.1.4-.2.7-.3l.6-.3c.2-.1.4-.2.5-.3v-.8h-2.6c-.3 0-.6.1-.7.3-.2.2-.2.4-.2.7 0 .3.1.6.3.7.2 0 .4.1.8.1zm.8-6.4c.4 0 .8.1 1.2.2.4.1.7.3 1 .5.3.2.5.5.7.9.2.3.3.7.3 1.2v3.2c0 .3 0 .6.1.9.1.3.2.5.3.8h-1.7c-.1-.1-.1-.2-.2-.4 0-.2-.1-.3-.1-.5-.4.3-.8.5-1.3.7-.4.2-.9.3-1.4.3-.3 0-.7-.1-1-.2-.3-.1-.6-.3-.8-.5-.2-.2-.4-.4-.6-.7-.1-.3-.2-.6-.2-.9 0-.4.1-.7.2-1 .1-.3.3-.5.5-.8.2-.2.5-.4.8-.5.3-.1.6-.2 1-.2h2.6v-.2c0-.5-.1-.9-.4-1.2-.3-.2-.6-.4-1.2-.4-.5 0-.9 0-1.2.1-.3.1-.7.2-1.1.4l-.7-1.2c.5-.3 1-.5 1.4-.6.8.1 1.3.1 1.8.1zm11.5 0v7.7h-1.6V77h-3.2v3.3h-1.6V73l1.6-.5v2.9h3.2V73l1.6-.4zm6.6 7.6v-5.1l-3.2 5.1h-1.7V73l1.6-.4v5.3l3.2-5.1h1.7v7.5h-1.6v-.1zm5.1-2.9c-.6-.1-1.1-.3-1.4-.7-.3-.4-.4-.9-.4-1.7 0-.4.1-.7.2-1 .2-.3.4-.5.6-.7.3-.2.5-.3.9-.4.3-.1.6-.1 1-.1h3.7v7.5h-1.6v-2.7h-.7c-.1 0-.2 0-.3.1-.1 0-.2.1-.3.2l-1.1 1.7c-.2.3-.4.5-.7.7-.3.2-.6.3-.9.3-.1 0-.2 0-.4-.1-.2 0-.3-.1-.4-.1V79c.2 0 .4 0 .6-.1.2-.1.4-.2.5-.3l.7-1.3zm3-3.2h-2c-.4 0-.7.1-.8.3-.2.2-.3.4-.3.7 0 .3.1.6.2.7.2.2.4.2.9.2h2v-1.9z"/></svg>