<svg width="60" height="60" viewBox="0 0 60 60" fill="none" xmlns="http://www.w3.org/2000/svg">
<g clip-path="url(#clip0)">
<path d="M58.5348 28.1021H47.9661C47.158 28.1021 46.5007 28.7594 46.5007 29.5675C46.5528 29.7612 46.5007 30.0314 46.5007 30.2331C40.9462 29.7765 37.0018 25.7901 36.7122 20.2437C36.5444 17.0281 38.2665 8.99268 33.0471 8.99268C29.6983 8.99268 28.1436 11.7543 27.429 14.071C26.8349 15.9977 26.5335 18.4692 26.5335 21.4166C26.5335 22.5506 28.292 22.5506 28.292 21.4166C28.292 18.6449 28.567 16.3479 29.1094 14.5892C29.9059 12.0066 31.1939 10.751 33.0471 10.751C35.1902 10.751 34.9962 13.5806 34.9935 15.0641C34.9881 17.9034 34.6621 20.8107 35.4474 23.5845C36.8474 28.5295 41.4928 31.6473 46.4978 31.9981V53.1114C45.4824 54.1305 40.9234 58.2391 33.4533 58.2391H21.1677C22.4636 56.5377 22.331 54.0838 20.8658 52.528C23.5688 51.3604 24.398 47.7962 22.4622 45.5639C26.6044 44.1881 26.3275 38.0379 22.0742 37.0471C23.3369 35.4831 23.3721 33.1998 22.1565 31.5985H26.5253C26.5476 32.9939 26.7303 35.7772 27.7091 38.6832C29.5578 44.1718 33.352 47.4051 38.6815 48.0337C39.8074 48.1662 40.0139 46.4201 38.8876 46.2874C32.466 45.53 29.236 40.0617 28.4705 34.0803C28.106 31.2328 28.2922 28.2748 28.2922 25.4119C28.2922 24.2779 26.5337 24.2779 26.5337 25.4119V29.8399L7.08385 29.8405C3.46737 29.8405 1.34677 34.1464 3.60066 37.0058C-0.304786 37.7292 -1.29105 43.0579 2.09799 45.1375C-0.688367 47.605 0.752877 52.3483 4.4323 52.8481C2.20678 55.7102 4.32773 59.9912 7.93178 59.9912L33.4534 59.9976C39.9189 59.9976 44.3332 57.246 46.501 55.4798V57.2028C46.501 58.0109 47.1583 58.6682 47.9663 58.6682H51.6546C52.7885 58.6682 52.7885 56.9097 51.6546 56.9097H48.2594V29.8606H58.2419V56.9097H55.5348C54.4008 56.9097 54.4008 58.6682 55.5348 58.6682H58.535C59.3431 58.6682 60.0004 58.0109 60.0004 57.2028V29.5675C60.0002 28.7594 59.3428 28.1021 58.5348 28.1021ZM7.08373 31.5992H18.6241C20.0985 31.5992 21.2981 32.7977 21.2981 34.2707C21.2981 35.6632 20.226 36.8096 18.863 36.9307H6.8447C5.48141 36.8095 4.40886 35.6631 4.40886 34.2707C4.40886 32.7976 5.60872 31.5992 7.08373 31.5992ZM4.40956 44.0312C2.93549 44.0312 1.7361 42.8328 1.7361 41.3599C1.7361 39.8873 2.93538 38.6892 4.40956 38.6892H21.0683C22.5423 38.6892 23.7417 39.8873 23.7417 41.3599C23.7417 42.8328 22.5425 44.0312 21.0683 44.0312H4.40956ZM2.35848 48.461C2.35848 46.9924 3.5397 45.7971 4.9942 45.7898H19.1261C20.5947 45.7971 21.7871 46.9924 21.7871 48.461C21.7871 49.9335 20.5874 51.1315 19.1126 51.1315H5.03194C3.55776 51.1315 2.35848 49.9335 2.35848 48.461ZM5.25855 55.5612C5.25855 54.0883 6.45771 52.89 7.93155 52.89H17.6404C19.1144 52.89 20.3137 54.0883 20.3137 55.5612C20.3137 57.0344 19.1145 58.2328 17.6404 58.2328H7.93155C6.45771 58.2328 5.25855 57.0344 5.25855 55.5612Z" fill="#EE7D21"/>
<path d="M56.2992 35.1072C56.2992 33.4265 54.9318 32.0591 53.251 32.0591C51.5704 32.0591 50.2031 33.4265 50.2031 35.1072C50.2031 36.7879 51.5704 38.1551 53.251 38.1551C54.9318 38.1551 56.2992 36.7879 56.2992 35.1072ZM53.251 36.3967C52.5401 36.3967 51.9616 35.8182 51.9616 35.1072C51.9616 34.3961 52.5401 33.8176 53.251 33.8176C53.9622 33.8176 54.5407 34.3961 54.5407 35.1072C54.5407 35.8182 53.9622 36.3967 53.251 36.3967Z" fill="#EE7D21"/>
</g>
<defs>
<clipPath id="clip0">
<rect width="60" height="60" fill="white"/>
</clipPath>
</defs>
</svg>
