<svg width="60" height="60" viewBox="0 0 60 60" fill="none" xmlns="http://www.w3.org/2000/svg">
<g clip-path="url(#clip0)">
<path d="M59.0742 12.1065H54.1889C54.3308 11.9074 54.4595 11.6982 54.5721 11.479C55.2184 10.2164 55.3059 8.72961 54.8119 7.39934L53.3315 3.42045C52.838 2.09155 51.8012 1.02313 50.4879 0.489373C49.1732 -0.0448397 47.6841 -0.00226753 46.4019 0.606561L34.6858 6.1707C34.1067 5.75688 33.3986 5.51243 32.6341 5.51243H27.3661C26.6017 5.51243 25.8931 5.75734 25.314 6.17116L13.5984 0.606103C12.3162 -0.00226748 10.8271 -0.0448397 9.51237 0.489373C8.19904 1.02313 7.1622 2.09155 6.66873 3.41999L5.18831 7.3998C4.69439 8.72961 4.78182 10.2164 5.42864 11.479C5.54079 11.6982 5.66988 11.9079 5.81179 12.1065H0.92606C0.414736 12.1065 0 12.5208 0 13.0326V19.699C0 20.2104 0.414736 20.6251 0.92606 20.6251C1.43738 20.6251 1.85212 20.2104 1.85212 19.699V13.9582H8.28418C8.38718 13.9944 8.49155 14.0278 8.59729 14.0571L16.3715 16.1971C14.6439 18.8444 13.12 21.629 11.8154 24.5143H1.85212V23.4028C1.85212 22.8915 1.43738 22.4772 0.92606 22.4772C0.414736 22.4772 0 22.8915 0 23.4028V25.4403C0 25.9517 0.414736 26.3664 0.92606 26.3664H4.22838V59.1502C4.22838 59.662 4.64312 60.0763 5.15444 60.0763H54.8458C55.3571 60.0763 55.7719 59.662 55.7719 59.1502V53.7733C55.7719 53.262 55.3571 52.8472 54.8458 52.8472C54.334 52.8472 53.9197 53.262 53.9197 53.7733V58.2246H35.5556V26.9359C38.1786 31.904 39.9542 37.3061 40.7713 42.8876C40.8254 43.257 41.0964 43.5578 41.4585 43.6503C41.5344 43.6699 41.6113 43.6791 41.6878 43.6791C41.9739 43.6791 42.2495 43.5463 42.4271 43.3106C43.7583 41.5445 44.9961 39.654 46.1135 37.6801C47.9848 38.9545 49.8017 40.3754 51.5256 41.9135C51.8163 42.1726 52.2384 42.2225 52.5812 42.0376C52.9241 41.8531 53.115 41.4736 53.0582 41.0881C52.3189 36.0449 50.9406 31.0855 48.9869 26.3664H53.9193V50.069C53.9193 50.5808 54.334 50.9951 54.8453 50.9951C55.3571 50.9951 55.7714 50.5808 55.7714 50.069V26.3664H59.0742C59.5855 26.3664 59.9998 25.9517 59.9998 25.4403V13.0326C60.0002 12.5208 59.586 12.1065 59.0742 12.1065ZM47.1961 2.27924C48.0224 1.88739 48.9434 1.86084 49.7907 2.20508C50.6367 2.54886 51.2775 3.20942 51.5957 4.0659L53.0756 8.04434C53.3942 8.90127 53.3398 9.82138 52.9232 10.6348C52.5071 11.4478 51.7925 12.0292 50.9118 12.2713L36.1713 16.3294V11.879C39.4846 9.85022 47.7445 5.66579 49.8003 8.56756C50.0956 8.98459 50.6733 9.08392 51.0908 8.78821C51.5082 8.49249 51.6071 7.91433 51.3114 7.49731C49.7248 5.25746 46.3813 5.14851 41.3729 7.17412C39.3097 8.00817 37.4049 9.02624 36.1713 9.73258V9.04913C36.1713 8.55337 36.0683 8.08096 35.8833 7.65203L47.1961 2.27924ZM27.3661 7.3641H32.6341C33.5634 7.3641 34.3191 8.12033 34.3191 9.04913V16.7034C34.3191 17.6327 33.5634 18.3885 32.6341 18.3885H27.3661C26.4369 18.3885 25.6811 17.6327 25.6811 16.7034V9.04913C25.6811 8.11987 26.4369 7.3641 27.3661 7.3641ZM25.8097 24.5138C26.6955 23.0421 27.6596 21.6157 28.6969 20.2406H31.3025C32.3402 21.6157 33.3043 23.0421 34.1896 24.5138H25.8097ZM7.07706 10.6348C6.66049 9.82138 6.60601 8.90127 6.92416 8.04479L8.40503 4.06544C8.72272 3.20942 9.3636 2.54886 10.2095 2.20508C11.0564 1.86084 11.9779 1.88739 12.8037 2.27924L24.1169 7.65295C23.932 8.08142 23.829 8.55337 23.829 9.04959V9.78568C22.5994 9.07797 20.6516 8.02969 18.5358 7.17412C13.5279 5.14851 10.1839 5.25746 8.59729 7.49731C8.30158 7.91433 8.40046 8.49249 8.81794 8.78821C9.23542 9.08392 9.81312 8.98504 10.1084 8.56756C12.1834 5.63832 20.5793 9.92941 23.829 11.9353V16.3294L9.08893 12.2718C8.20774 12.0292 7.49316 11.4478 7.07706 10.6348ZM24.2446 18.3647C24.7056 19.2271 25.5131 19.8776 26.4804 20.128C22.1494 26.1705 19.168 33.1134 17.7695 40.4111C16.7858 38.9737 15.8662 37.4672 15.0243 35.9113C14.9012 35.6833 14.6888 35.5176 14.4375 35.454C14.1866 35.3903 13.9207 35.4347 13.7041 35.5762C12.1619 36.5819 10.6517 37.6851 9.19331 38.8698C10.6952 30.9862 13.7984 23.3845 18.2484 16.714L24.2446 18.3647ZM6.0805 26.3664H11.0134C9.05964 31.0855 7.68131 36.0445 6.94156 41.0881C6.88525 41.4736 7.07568 41.8531 7.41855 42.0376C7.76187 42.222 8.18347 42.1726 8.47416 41.9135C10.1981 40.3754 12.015 38.9545 13.8868 37.6801C15.0042 39.654 16.2415 41.5441 17.5732 43.3106C17.7508 43.5463 18.0264 43.6796 18.3125 43.6796C18.3889 43.6796 18.4658 43.6699 18.5418 43.6503C18.9039 43.5578 19.1744 43.257 19.2284 42.8876C20.046 37.3061 21.8217 31.9035 24.4442 26.9354V58.2246H6.0805V26.3664ZM26.2963 58.2246V26.3664H33.7039V58.2246H26.2963ZM46.2961 35.5762C46.0796 35.4347 45.8132 35.3908 45.5628 35.4544C45.3119 35.5181 45.0991 35.6838 44.9759 35.9113C44.1341 37.4672 43.2144 38.9742 42.2307 40.4111C40.8322 33.113 37.8508 26.1705 33.5194 20.1284C34.4867 19.8785 35.2946 19.2276 35.7556 18.3647L41.7533 16.7135C46.2023 23.3854 49.3055 30.9871 50.8074 38.8698C49.3485 37.6851 47.8383 36.5819 46.2961 35.5762ZM58.1481 24.5143H48.1853C46.8807 21.629 45.3568 18.8444 43.6296 16.1971L51.403 14.0571C51.5087 14.0278 51.6131 13.9944 51.7161 13.9582H58.1481V24.5143Z" fill="#EE7D21"/>
</g>
<defs>
<clipPath id="clip0">
<rect width="60" height="60" fill="white"/>
</clipPath>
</defs>
</svg>
