<svg width="60" height="60" viewBox="0 0 60 60" fill="none" xmlns="http://www.w3.org/2000/svg">
<path d="M49 11H39C34.4736 11.0073 30.4126 13.7842 28.7642 18H24C23.4478 18 23 18.4478 23 19V31C23 31.5522 23.4478 32 24 32H28V35H1C0.447754 35 0 35.4478 0 36V46C0 47.6567 1.34326 49 3 49C4.65674 49 6 47.6567 6 46V43H49C55.0723 42.9927 59.9927 38.0723 60 32V22C59.9927 15.9277 55.0723 11.0073 49 11ZM25 30V20H28.1831C28.1489 20.1802 28.1318 20.3628 28.1079 20.5439C28.0898 20.6748 28.0669 20.8042 28.0542 20.937C28.02 21.2891 28 21.644 28 22V30H25ZM2 37H4V39H6V37H8V39H10V37H12V39H14V37H16V39H18V37H20V39H22V37H24V39H26V37H28V41H2V37ZM4 46C4 46.5522 3.55225 47 3 47C2.44775 47 2 46.5522 2 46V43H4V46ZM58 32C57.9946 36.9683 53.9683 40.9946 49 41H30V22C30.0034 21.5923 30.0342 21.1851 30.0918 20.7808C30.106 20.6812 30.1211 20.5811 30.1372 20.4888C30.8389 16.1475 34.6025 12.9673 39 13H49C53.9683 13.0054 57.9946 17.0317 58 22V32Z" fill="#EE7D21"/>
<path d="M44 16C37.9248 16 33 20.9248 33 27C33 33.0752 37.9248 38 44 38C50.0752 38 55 33.0752 55 27C54.9927 20.9277 50.0723 16.0073 44 16ZM44 36C39.0293 36 35 31.9707 35 27C35 22.0293 39.0293 18 44 18C48.9707 18 53 22.0293 53 27C52.9946 31.9683 48.9683 35.9946 44 36Z" fill="#EE7D21"/>
<path d="M40.3691 21.0142L41.4082 22.7231C41.896 22.4268 42.4316 22.2163 42.9912 22.102L42.5908 20.1431C41.8057 20.3027 41.0537 20.5972 40.3691 21.0142Z" fill="#EE7D21"/>
<path d="M38.9752 22.127C36.9542 24.2124 36.4293 27.3286 37.6549 29.9609L39.4679 29.1152C38.5909 27.2354 38.9659 25.0093 40.4103 23.52L38.9752 22.127Z" fill="#EE7D21"/>
</svg>
