<svg width="60" height="60" viewBox="0 0 60 60" fill="none" xmlns="http://www.w3.org/2000/svg">
<g clip-path="url(#clip0)">
<path d="M59.0268 39.6002C59.5189 39.6002 59.9181 39.201 59.9181 38.709V17.2055C59.9181 15.9865 59.4438 14.8393 58.5809 13.9728C57.7167 13.1122 56.5695 12.6379 55.3505 12.6379H45.2115V0.890808C45.2115 0.398712 44.8128 0 44.3207 0H22.5595C22.0674 0 21.6687 0.398712 21.6687 0.890808V13.5255C21.6687 14.0176 22.0674 14.4164 22.5595 14.4164C23.0516 14.4164 23.4503 14.0176 23.4503 13.5255V1.78207H43.4299V12.6379H33.5902C33.5898 12.6379 33.5889 12.6384 33.588 12.6384C32.3698 12.6389 31.2231 13.1126 30.3575 13.9755C29.8961 14.4388 29.5404 14.9986 29.3124 15.6061C29.111 15.5768 28.905 15.5612 28.6958 15.5612H9.20517C8.71307 15.5612 8.31436 15.9599 8.31436 16.452C8.31436 16.9441 8.71307 17.3428 9.20517 17.3428H28.6958C30.0742 17.3428 31.1952 18.4639 31.1952 19.8422V55.719C31.1952 57.0969 30.0742 58.2184 28.6958 58.2184H4.39865C3.02032 58.2184 1.89926 57.0973 1.89926 55.719V19.8422C1.89926 18.4644 3.02032 17.3428 4.39865 17.3428H6.2352C6.72729 17.3428 7.12601 16.9441 7.12601 16.452C7.12601 15.9599 6.72729 15.5612 6.2352 15.5612H4.39865C2.03751 15.5612 0.117188 17.4815 0.117188 19.8422V55.719C0.117188 58.0797 2.03751 60 4.39865 60H28.6958C31.0565 60 32.9773 58.0797 32.9773 55.719V21.7731H36.3762V55.4585C36.3762 55.9506 36.7749 56.3493 37.267 56.3493H59.0273C59.5193 56.3493 59.9181 55.9506 59.9181 55.4585V41.6789C59.9181 41.1868 59.5193 40.7881 59.0273 40.7881C58.5352 40.7881 58.136 41.1868 58.136 41.6789V54.5673H38.1578V17.2055C38.1578 16.1856 37.8259 15.2161 37.2125 14.42H55.3505C56.0948 14.42 56.7957 14.7098 57.3207 15.233C57.8467 15.7603 58.136 16.4612 58.136 17.2055V38.709C58.136 39.201 58.5352 39.6002 59.0268 39.6002ZM35.56 15.2335C36.0864 15.7608 36.3762 16.4607 36.3762 17.2055V19.9915H32.9768V19.8422C32.9768 18.322 32.1794 16.9849 30.9819 16.2254C31.1192 15.8569 31.3335 15.5205 31.6177 15.2353C32.1451 14.7093 32.8459 14.42 33.5902 14.42H33.5925C34.3355 14.4205 35.0349 14.7102 35.56 15.2335Z" fill="#EE7D21"/>
<path d="M29.4139 20.0158C29.4139 19.5237 29.0152 19.125 28.5231 19.125H4.57245C4.08081 19.125 3.68164 19.5237 3.68164 20.0158V28.8282C3.68164 29.3203 4.08081 29.7195 4.57245 29.7195H28.5231C29.0152 29.7195 29.4139 29.3203 29.4139 28.8282V20.0158ZM27.6323 27.9374H5.46371V20.9066H27.6323V27.9374Z" fill="#EE7D21"/>
<path d="M28.5231 31.6934H4.57245C4.08081 31.6934 3.68164 32.0921 3.68164 32.5842V55.6417C3.68164 56.1338 4.08081 56.533 4.57245 56.533H28.5231C29.0152 56.533 29.4139 56.1338 29.4139 55.6417V32.5842C29.4139 32.0921 29.0152 31.6934 28.5231 31.6934ZM27.6323 39.5733H21.5971V33.475H27.6323V39.5733ZM27.6323 46.871H21.5971V41.3549H27.6323V46.871ZM5.46371 41.3549H11.4984V46.871H5.46371V41.3549ZM13.28 41.3549H19.8155V46.871H13.28V41.3549ZM19.8155 33.475V39.5733H13.28V33.475H19.8155ZM11.4984 33.475V39.5733H5.46371V33.475H11.4984ZM5.46371 48.653H11.4984V54.7509H5.46371V48.653ZM13.28 54.7509V48.653H19.8155V54.7509H13.28ZM21.5976 54.7509V48.653H27.6323V54.7509H21.5976Z" fill="#EE7D21"/>
<path d="M43.1206 17.1489H40.7448C40.2527 17.1489 39.8535 17.5476 39.8535 18.0397C39.8535 18.5318 40.2527 18.9305 40.7448 18.9305H43.1206C43.6122 18.9305 44.0114 18.5318 44.0114 18.0397C44.0114 17.5476 43.6122 17.1489 43.1206 17.1489Z" fill="#EE7D21"/>
<path d="M55.5918 17.1489H46.2077C45.7156 17.1489 45.3164 17.5476 45.3164 18.0397C45.3164 18.5318 45.7156 18.9305 46.2077 18.9305H55.5918C56.0839 18.9305 56.4826 18.5318 56.4826 18.0397C56.4826 17.5476 56.0839 17.1489 55.5918 17.1489Z" fill="#EE7D21"/>
<path d="M43.1206 37.2236H40.7448C40.2527 37.2236 39.8535 37.6228 39.8535 38.1149C39.8535 38.607 40.2527 39.0057 40.7448 39.0057H43.1206C43.6122 39.0057 44.0114 38.607 44.0114 38.1149C44.0114 37.6228 43.6122 37.2236 43.1206 37.2236Z" fill="#EE7D21"/>
<path d="M56.4826 38.1149C56.4826 37.6228 56.0839 37.2236 55.5918 37.2236H46.2077C45.7156 37.2236 45.3164 37.6228 45.3164 38.1149C45.3164 38.607 45.7156 39.0057 46.2077 39.0057H55.5918C56.0839 39.0057 56.4826 38.607 56.4826 38.1149Z" fill="#EE7D21"/>
<path d="M43.1206 32.2056H40.7448C40.2527 32.2056 39.8535 32.6043 39.8535 33.0964C39.8535 33.5885 40.2527 33.9872 40.7448 33.9872H43.1206C43.6122 33.9872 44.0114 33.5885 44.0114 33.0964C44.0114 32.6043 43.6122 32.2056 43.1206 32.2056Z" fill="#EE7D21"/>
<path d="M55.5918 32.2056H46.2077C45.7156 32.2056 45.3164 32.6043 45.3164 33.0964C45.3164 33.5885 45.7156 33.9872 46.2077 33.9872H55.5918C56.0839 33.9872 56.4826 33.5885 56.4826 33.0964C56.4826 32.6043 56.0839 32.2056 55.5918 32.2056Z" fill="#EE7D21"/>
<path d="M43.1206 27.1865H40.7448C40.2527 27.1865 39.8535 27.5852 39.8535 28.0773C39.8535 28.5694 40.2527 28.9681 40.7448 28.9681H43.1206C43.6122 28.9681 44.0114 28.5694 44.0114 28.0773C44.0114 27.5852 43.6122 27.1865 43.1206 27.1865Z" fill="#EE7D21"/>
<path d="M55.5918 27.1865H46.2077C45.7156 27.1865 45.3164 27.5852 45.3164 28.0773C45.3164 28.5694 45.7156 28.9681 46.2077 28.9681H55.5918C56.0839 28.9681 56.4826 28.5694 56.4826 28.0773C56.4826 27.5852 56.0839 27.1865 55.5918 27.1865Z" fill="#EE7D21"/>
<path d="M43.1206 22.168H40.7448C40.2527 22.168 39.8535 22.5667 39.8535 23.0588C39.8535 23.5509 40.2527 23.9496 40.7448 23.9496H43.1206C43.6122 23.9496 44.0114 23.5509 44.0114 23.0588C44.0114 22.5667 43.6122 22.168 43.1206 22.168Z" fill="#EE7D21"/>
<path d="M55.5918 22.168H46.2077C45.7156 22.168 45.3164 22.5667 45.3164 23.0588C45.3164 23.5509 45.7156 23.9496 46.2077 23.9496H55.5918C56.0839 23.9496 56.4826 23.5509 56.4826 23.0588C56.4826 22.5667 56.0839 22.168 55.5918 22.168Z" fill="#EE7D21"/>
<path d="M26.0139 5.93637H28.3896C28.8817 5.93637 29.2809 5.5372 29.2809 5.0451C29.2809 4.55301 28.8817 4.1543 28.3896 4.1543H26.0139C25.5218 4.1543 25.123 4.55301 25.123 5.0451C25.123 5.5372 25.5218 5.93637 26.0139 5.93637Z" fill="#EE7D21"/>
<path d="M31.4787 5.93637H40.8633C41.3554 5.93637 41.7541 5.5372 41.7541 5.0451C41.7541 4.55301 41.3554 4.1543 40.8633 4.1543H31.4787C30.9871 4.1543 30.5879 4.55301 30.5879 5.0451C30.5879 5.5372 30.9871 5.93637 31.4787 5.93637Z" fill="#EE7D21"/>
<path d="M26.0139 10.9554H28.3896C28.8817 10.9554 29.2809 10.5562 29.2809 10.0641C29.2809 9.57205 28.8817 9.17334 28.3896 9.17334H26.0139C25.5218 9.17334 25.123 9.57205 25.123 10.0641C25.123 10.5562 25.5218 10.9554 26.0139 10.9554Z" fill="#EE7D21"/>
<path d="M31.4787 10.9554H40.8633C41.3554 10.9554 41.7541 10.5562 41.7541 10.0641C41.7541 9.57205 41.3554 9.17334 40.8633 9.17334H31.4787C30.9871 9.17334 30.5879 9.57205 30.5879 10.0641C30.5879 10.5562 30.9871 10.9554 31.4787 10.9554Z" fill="#EE7D21"/>
<path d="M48.1743 52.1772C48.2631 52.261 48.3917 52.3091 48.5277 52.3091H48.5492C48.8861 52.3091 49.1608 52.0344 49.1608 51.6975V51.568C50.551 51.2709 51.3475 50.3091 51.3475 48.9262C51.3475 47.3607 50.2988 46.7349 49.1608 46.2954V44.1009C49.527 44.1586 49.7728 44.2831 49.9715 44.3838C50.1427 44.4703 50.2782 44.539 50.4292 44.539C50.9131 44.539 51.1223 43.9476 51.1223 43.6459C51.1223 43.0023 50.1143 42.7038 49.1608 42.6384V42.5056C49.1608 42.1682 48.8861 41.894 48.5492 41.894C48.2123 41.894 47.9376 42.1682 47.9376 42.5056V42.6773C46.4806 42.9208 45.6451 43.8112 45.6451 45.1222C45.6451 46.734 46.964 47.2407 47.9376 47.6074V50.0702C47.4007 49.9681 47.0514 49.6971 46.7694 49.4783C46.5396 49.2997 46.3583 49.1588 46.1501 49.1588C45.7335 49.1588 45.4199 49.7081 45.4199 50.0647C45.4199 50.7371 46.4526 51.5437 47.9376 51.6362V51.6971C47.9376 51.8861 48.0246 52.0619 48.1743 52.1772ZM47.9376 44.1737V45.8299C47.5655 45.6587 47.2308 45.4303 47.2308 44.9601C47.2308 44.5825 47.4753 44.311 47.9376 44.1737ZM49.1608 49.9891V48.127C49.5755 48.3719 49.7614 48.6708 49.7614 49.0887C49.7614 49.5099 49.554 49.8202 49.1608 49.9891Z" fill="#EE7D21"/>
<path d="M23.8166 26.8895H25.7172C26.2093 26.8895 26.608 26.4903 26.608 25.9987C26.608 25.5066 26.2093 25.1074 25.7172 25.1074H23.8166C23.3245 25.1074 22.9258 25.5066 22.9258 25.9987C22.9258 26.4903 23.3245 26.8895 23.8166 26.8895Z" fill="#EE7D21"/>
</g>
<defs>
<clipPath id="clip0">
<rect width="60" height="60" fill="white"/>
</clipPath>
</defs>
</svg>
