<svg width="60" height="60" viewBox="0 0 60 60" fill="none" xmlns="http://www.w3.org/2000/svg">
<g clip-path="url(#clip0)">
<path d="M53.7502 5.00078H48.7501V3.75086C48.7501 1.68309 47.0678 0.000976562 45.0001 0.000976562C42.9322 0.000976562 41.2499 1.68309 41.2499 3.75086V5.00078H18.7501V3.75086C18.7501 1.68309 17.0678 0.000976562 14.9999 0.000976562C12.9322 0.000976562 11.2501 1.68309 11.2501 3.75086V5.00078H6.25008C2.80383 5.00078 0 7.80438 0 11.2506V58.7508C0 59.4411 0.559805 60.0009 1.25004 60.0009H58.7501C59.4404 60.0009 60.0001 59.4411 60.0001 58.7508V11.2506C60 7.80438 57.1965 5.00078 53.7502 5.00078ZM43.7498 3.75086C43.7498 3.06156 44.3106 2.50094 45.0001 2.50094C45.6894 2.50094 46.2502 3.06156 46.2502 3.75086V8.75113C46.2502 9.44043 45.6894 10.0011 45.0001 10.0011C44.3106 10.0011 43.7498 9.44043 43.7498 8.75113V3.75086ZM13.7501 3.75086C13.7501 3.06156 14.3108 2.50094 15.0001 2.50094C15.6894 2.50094 16.2502 3.06156 16.2502 3.75086V8.75113C16.2502 9.44043 15.6894 10.0011 15.0001 10.0011H14.9999C14.3106 10.0011 13.7501 9.44043 13.7501 8.75113V3.75086ZM57.5 57.5007H2.49996V17.5008H49.7343C50.4244 17.5008 50.9843 16.941 50.9843 16.2508C50.9843 15.5605 50.4244 15.0009 49.7343 15.0009H2.49996V11.2506C2.49996 9.18297 4.18207 7.50086 6.24996 7.50086H11.25V8.75125C11.25 10.819 12.9321 12.5011 15 12.5011C17.0679 12.5011 18.75 10.819 18.75 8.75125V7.50086H41.2496V8.75125C41.2496 10.819 42.932 12.5011 44.9999 12.5011C47.0675 12.5011 48.7499 10.819 48.7499 8.75125V7.50086H53.7499C55.8176 7.50086 57.4997 9.18297 57.4997 11.2506V57.5007H57.5Z" fill="#EE7D21"/>
<path d="M54.3485 15H53.5938C52.9037 15 52.3438 15.5598 52.3438 16.25C52.3438 16.9403 52.9037 17.5001 53.5938 17.5001H54.3485C55.0388 17.5001 55.5985 16.9403 55.5985 16.25C55.5985 15.5598 55.0389 15 54.3485 15Z" fill="#EE7D21"/>
<path d="M52.4998 21.25H7.50004C6.80969 21.25 6.25 21.8098 6.25 22.5V45C6.25 45.6904 6.80969 46.2501 7.50004 46.2501H13.7499V51.2499H11.8907C11.2004 51.2499 10.6407 51.8097 10.6407 52.4999C10.6407 53.1902 11.2002 53.75 11.8907 53.75H52.4999C53.1903 53.75 53.75 53.1902 53.75 52.4999V22.5C53.7498 21.8097 53.1904 21.25 52.4998 21.25ZM31.2497 23.75H36.2495V28.7496H31.2497V23.75ZM31.2497 38.7498H36.2495V43.75H31.2497V38.7498ZM13.7498 43.75H8.74996V38.7498H13.7498V43.75ZM13.7498 36.2499H8.74996V31.2497H13.7498V36.2499ZM13.7498 28.7496H8.74996V23.75H13.7498V28.7496ZM21.2499 51.2499H16.2498V46.2501H21.2499V51.2499ZM21.2499 43.75H16.2498V38.7498H21.2499V43.75ZM21.2499 36.2499H16.2498V31.2497H21.2499V36.2499ZM21.2499 28.7496H16.2498V23.75H21.2499V28.7496ZM28.7496 51.2499H23.7498V46.2501H28.7496V51.2499ZM28.7496 43.75H23.7498V38.7498H28.7496V43.75ZM28.7496 36.2499H23.7498V31.2497H28.7496V36.2499ZM28.7496 28.7496H23.7498V23.75H28.7496V28.7496ZM36.2495 51.2499H31.2497V46.2501H36.2495V51.2499ZM36.2495 36.2499H31.2497V31.2497H36.2495V36.2499ZM43.7495 51.2499H38.7495V46.2501H43.7495V51.2499ZM43.7495 43.75H38.7495V38.7498H43.7495V43.75ZM43.7495 36.2499H38.7495V31.2497H43.7495V36.2499ZM43.7495 28.7496H38.7495V23.75H43.7495V28.7496ZM51.2499 51.2499H46.2496V46.2501H51.2499V51.2499ZM51.2499 43.75H46.2496V38.7498H51.2499V43.75ZM51.2499 36.2499H46.2496V31.2497H51.2499V36.2499ZM51.2499 28.7496H46.2496V23.75H51.2499V28.7496Z" fill="#EE7D21"/>
<path d="M8.02082 51.25H7.50004C6.80969 51.25 6.25 51.8098 6.25 52.5C6.25 53.1903 6.80969 53.7501 7.50004 53.7501H8.02082C8.71094 53.7501 9.27086 53.1903 9.27086 52.5C9.27086 51.8098 8.71106 51.25 8.02082 51.25Z" fill="#EE7D21"/>
</g>
<defs>
<clipPath id="clip0">
<rect width="60" height="60" fill="white"/>
</clipPath>
</defs>
</svg>
