<svg height="479pt" fill="#D2691E" viewBox="-72 0 479 479.78032" width="479pt" xmlns="http://www.w3.org/2000/svg"><path d="m331.410156 156.699219-19.617187-17.457031 11.441406-23.632813c1.847656-3.804687 1.984375-8.21875.367187-12.128906-1.617187-3.914063-4.828124-6.945313-8.824218-8.332031l-24.800782-8.625 1.527344-26.207032c.25-4.226562-1.320312-8.355468-4.3125-11.347656-2.992187-2.996094-7.125-4.5625-11.351562-4.308594l-26.199219 1.519532-8.632813-24.800782c-1.386718-3.996094-4.414062-7.203125-8.320312-8.824218-3.910156-1.617188-8.320312-1.488282-12.125.351562l-23.65625 11.449219-17.449219-19.609375c-2.886719-3.03125-6.890625-4.746094-11.074219-4.746094-4.1875 0-8.191406 1.714844-11.078124 4.746094l-17.449219 19.609375-23.628907-11.441407c-3.808593-1.847656-8.226562-1.980468-12.136718-.363281-3.910156 1.621094-6.941406 4.835938-8.328125 8.835938l-8.625 24.800781-26.207031-1.519531c-4.226563-.25-8.355469 1.320312-11.347657 4.3125-2.992187 2.992187-4.5625 7.125-4.308593 11.351562l1.519531 26.199219-24.800781 8.625c-3.992188 1.390625-7.199219 4.421875-8.816407 8.328125-1.617187 3.90625-1.488281 8.320313.351563 12.125l11.441406 23.640625-19.609375 17.449219c-3.160156 2.8125-4.96875 6.839843-4.96875 11.070312s1.808594 8.261719 4.96875 11.074219l19.617187 17.453125-11.429687 23.632813c-1.847656 3.800781-1.984375 8.210937-.371094 12.121093 1.609375 3.90625 4.8125 6.9375 8.800781 8.335938l24.800782 8.625-1.519532 26.207031c-.25 4.226562 1.320313 8.355469 4.3125 11.347656 2.996094 2.992188 7.125 4.558594 11.351563 4.308594l26.199219-1.519531 8.625 24.800781c1.390625 3.992188 4.417968 7.203125 8.328125 8.820312 3.90625 1.621094 8.320312 1.492188 12.125-.351562l23.640625-11.445312 17.441406 19.605468c2.8125 3.164063 6.84375 4.972656 11.074219 4.972656 4.234375 0 8.265625-1.808593 11.078125-4.972656l17.457031-19.613281 23.628906 11.4375c3.808594 1.855469 8.230469 1.988281 12.140625.367187 3.914063-1.617187 6.949219-4.835937 8.332032-8.839843l8.632812-24.796875 26.207031 1.519531c4.226563.25 8.355469-1.320313 11.347657-4.316406 2.992187-2.992188 4.5625-7.125 4.308593-11.347657l-1.511719-26.183593 24.800782-8.625c3.996094-1.390625 7.203125-4.421875 8.824218-8.328125 1.617188-3.90625 1.488282-8.320313-.351562-12.128906l-11.449219-23.640626 19.609375-17.445312c3.160156-2.8125 4.96875-6.84375 4.96875-11.074219s-1.808594-8.257812-4.96875-11.070312zm-30.929687 28.238281c-4.917969 4.421875-6.335938 11.554688-3.480469 17.519531l11.257812 23.257813-24.382812 8.472656c-6.242188 2.195312-10.277344 8.257812-9.898438 14.863281l1.496094 25.777344-25.816406-1.488281c-6.617188-.386719-12.691406 3.660156-14.878906 9.917968l-8.480469 24.386719-23.246094-11.25c-5.96875-2.855469-13.105469-1.441406-17.53125 3.480469l-17.140625 19.289062-17.167968-19.296874c-4.421876-4.925782-11.566407-6.34375-17.53125-3.472657l-23.246094 11.25-8.457032-24.386719c-2.171874-6.269531-8.253906-10.324218-14.878906-9.917968l-25.785156 1.496094 1.503906-25.777344c.371094-6.613282-3.675781-12.675782-9.925781-14.863282l-24.386719-8.472656 11.25-23.257812c2.863282-5.964844 1.445313-13.105469-3.480468-17.527344l-19.296876-17.199219 19.304688-17.167969c4.917969-4.421874 6.332031-11.554687 3.472656-17.519531l-11.25-23.230469 24.386719-8.480468c6.25-2.191406 10.296875-8.25 9.925781-14.867188l-1.503906-25.773437 25.785156 1.496093c6.601563.324219 12.640625-3.703124 14.878906-9.921874l8.472657-24.382813 23.246093 11.246094c5.972657 2.859375 13.113282 1.441406 17.539063-3.476563l17.144531-19.289062 17.175782 19.296875c4.421874 4.917969 11.554687 6.332031 17.519531 3.46875l23.246093-11.246094 8.457032 24.382813c2.15625 6.285156 8.25 10.351562 14.878906 9.929687l25.785156-1.496094-1.464844 25.777344c-.375 6.601563 3.660157 12.65625 9.898438 14.855469l24.382812 8.472656-11.257812 23.253906c-2.855469 5.96875-1.433594 13.105469 3.488281 17.527344l19.289063 17.144531zm0 0"/><path d="m168.378906 55.738281c-61.859375 0-112 50.144531-112 112s50.140625 112 112 112c61.855469 0 112-50.144531 112-112-.078125-61.824219-50.175781-111.925781-112-112zm0 208c-53.019531 0-96-42.980469-96-96s42.980469-96 96-96c53.015625 0 96 42.980469 96 96-.058594 52.996094-43.007812 95.941407-96 96zm0 0"/><path d="m232.378906 167.738281c0 35.347657-28.65625 64-64 64-35.347656 0-64-28.652343-64-64 0-35.347656 28.652344-64 64-64 4.417969 0 8-3.582031 8-8s-3.582031-8-8-8c-44.183594 0-80 35.816407-80 80 0 44.183594 35.816406 80 80 80 44.179688 0 80-35.816406 80-80 0-4.417969-3.582031-8-8-8-4.421875 0-8 3.582031-8 8zm0 0"/><path d="m176.378906 135.738281c-.003906-1.046875-.210937-2.082031-.617187-3.046875-1.023438-2.46875-3.210938-4.261718-5.832031-4.785156-2.621094-.519531-5.328126.304688-7.214844 2.191406l-16 16c-2.082032 2.007813-2.914063 4.984375-2.183594 7.78125.734375 2.796875 2.917969 4.980469 5.714844 5.714844 2.796875.730469 5.769531-.101562 7.777344-2.183594l2.355468-2.328125v36.65625h-16c-4.421875 0-8 3.582031-8 8s3.578125 8 8 8h48c4.417969 0 8-3.582031 8-8s-3.582031-8-8-8h-16zm0 0"/><path d="m285.929688 311.988281c-.921876-2.761719-3.265626-4.804687-6.128907-5.335937-2.859375-.53125-5.78125.53125-7.632812 2.773437-1.851563 2.246094-2.335938 5.316407-1.269531 8.023438l41.480468 113.402343-46.113281-12.800781c-6.539063-1.824219-13.511719.714844-17.351563 6.3125l-26.9375 39.480469-33.015624-90.808594c-.921876-2.761718-3.265626-4.804687-6.125-5.335937-2.863282-.53125-5.785157.53125-7.636719 2.777343-1.851563 2.242188-2.335938 5.316407-1.269531 8.023438l33.046874 90.839844c2.035157 5.585937 7.019532 9.566406 12.917969 10.3125 5.898438.75 11.71875-1.859375 15.082031-6.761719l27-39.449219 46.128907 12.800782c5.734375 1.605468 11.886719-.132813 15.933593-4.503907 4.046876-4.367187 5.308594-10.636719 3.265626-16.230469zm0 0"/><path d="m227.578125 419.53125c2.980469.378906 5.921875-.953125 7.597656-3.449219l.519531-.800781c7.792969-11.144531 21.734376-16.214844 34.867188-12.679688l.957031.265626c4.261719 1.175781 8.667969-1.320313 9.84375-5.582032 1.179688-4.257812-1.320312-8.664062-5.578125-9.84375l-.945312-.253906c-15.074219-4.082031-31.191406-.660156-43.300782 9.199219l-21.027343-57.742188c-1.324219-4.21875-5.816407-6.5625-10.035157-5.238281-4.214843 1.324219-6.5625 5.820312-5.234374 10.035156l25.789062 70.875c1.027344 2.832032 3.554688 4.847656 6.546875 5.214844zm0 0"/><path d="m158.050781 368.25c-4.15625-1.503906-8.746093.644531-10.25 4.800781l-32.839843 90.769531-27.085938-39.472656c-3.84375-5.59375-10.8125-8.132812-17.355469-6.320312l-45.980469 12.984375 41.324219-113.5625c1.375-4.109375-.78125-8.566407-4.855469-10.046875-4.074218-1.480469-8.585937.550781-10.175781 4.585937l-41.328125 113.542969c-2.046875 5.59375-.785156 11.867188 3.261719 16.238281 4.046875 4.375 10.203125 6.113281 15.941406 4.503907l46-12.878907 27.09375 39.472657c3.363281 4.902343 9.1875 7.511718 15.082031 6.761718 5.898438-.746094 10.882813-4.726562 12.917969-10.3125l33.054688-90.816406c.722656-1.996094.625-4.199219-.277344-6.121094s-2.53125-3.40625-4.527344-4.128906zm0 0"/><path d="m86.601562 330.675781c-1.996093-.726562-4.199218-.628906-6.125.273438-1.921874.898437-3.410156 2.527343-4.132812 4.523437l-20.765625 56.960938c-1.019531 2.804687-.394531 5.945312 1.625 8.144531 2.019531 2.195313 5.09375 3.089844 7.972656 2.3125l1-.273437c13.109375-3.507813 27.015625 1.542968 34.816407 12.648437l.578124.800781c1.589844 2.40625 4.355469 3.765625 7.234376 3.5625 2.875-.203125 5.421874-1.9375 6.660156-4.542968 1.238281-2.605469.980468-5.675782-.679688-8.035157l-.574218-.847656c-8.847657-12.902344-23.441407-20.667969-39.082032-20.800781l16.199219-44.519532c1.488281-4.125-.621094-8.675781-4.726563-10.207031zm0 0"/></svg>