<?xml version="1.0" encoding="utf-8"?>
<!-- Generator: Adobe Illustrator 22.0.1, SVG Export Plug-In . SVG Version: 6.00 Build 0)  -->
<svg version="1.1" id="Layer_1" xmlns="http://www.w3.org/2000/svg" xmlns:xlink="http://www.w3.org/1999/xlink" x="0px" y="0px"
	 viewBox="0 0 905 860" style="enable-background:new 0 0 905 860;" xml:space="preserve">
<style type="text/css">
	.st0{fill:#FF6633;stroke:#000000;stroke-miterlimit:10;}
	.st1{fill:#FFFFFF;}
</style>
<path class="st0" d="M758,809.4H121.8c-48.3,0-87.8-39.5-87.8-87.8v-600c0-48.3,39.5-87.8,87.8-87.8H758V809.4z"/>
<g transform="translate(1 1)">
	<g>
		<g>
			<path class="st1" d="M657.1,431.2c-1.7-41.8-10.2-80.2-27.3-112.6c-11.9-23-23-38.4-43.5-58c-21.3-20.5-37.5-32.4-63.1-44.4
				c-26.5-12.8-45.2-17.1-73.4-20.5c-5.1-0.9-15.4-1.7-23-1.7c-13.7,0-19.6,0-25.6,6c-5.1,4.3-7.7,11.1-7.7,17.9
				c0,6.8,3.4,12.8,8.5,17.1c6,4.3,11.1,5.1,26.5,6c45.2,2.6,73.4,12.8,105,35.8c39.3,28.2,64,68.3,72.5,117.8
				c2.6,12.8,3.4,23.9,4.3,40.1c0.9,11.9,0.9,16.2,3.4,20.5c4.3,6.8,11.1,11.1,18.8,11.9h2.6c6.8,0,13.7-3.4,17.1-9.4
				C658,450.9,658,444.9,657.1,431.2z"/>
			<path class="st1" d="M588.8,401.4c-3.4-27.3-12.8-52.9-27.3-74.2c-27.3-39.3-67.4-62.3-119.5-70c-17.9-2.6-30.7-3.4-38.4,8.5
				c-6,8.5-5.1,20.5,1.7,28.2c6,6.8,13.7,7.7,21.3,8.5c20.5,1.7,43.5,8.5,58.9,17.1c17.9,10.2,32.4,25.6,42.7,43.5
				c8.5,16.2,13.7,35.8,13.7,55.5c0,11.9,0.9,23,12.8,29c3.4,1.7,7.7,2.6,11.9,2.6c3.4,0,7.7-0.9,10.2-2.6
				c4.3-1.7,9.4-7.7,11.1-11.9C590.5,429.5,589.7,407.4,588.8,401.4z"/>
			<path class="st1" d="M522.3,400.5c-4.3-23.9-11.9-41-27.3-54.6c-11.1-11.1-24.7-17.9-42.7-21.3c-4.3-0.9-11.1-1.7-15.4-1.7
				c-6.8,0-10.2,0-15.4,2.6c-6,3.4-10.2,9.4-11.9,16.2c-1.7,6.8,0.9,14.5,5.1,19.6c6,6,11.1,6.8,22.2,8.5c18.8,1.7,29,8.5,35,20.5
				c3.4,6,5.1,12.8,6,23c0.9,8.5,2.6,14.5,9.4,19.6c4.3,2.6,9.4,4.3,14.5,4.3c6,0,11.1-1.7,13.7-4.3
				C524,425.3,524.8,415,522.3,400.5z"/>
			<path class="st1" d="M648.6,582.3c-6-6.8-42.7-35.8-58.9-46.9c-12.8-8.5-33.3-20.5-42.7-25.6c-13.7-6.8-28.2-7.7-41.8-3.4
				c-2.6,0.9-5.1,1.7-6.8,2.6c-6.8,3.4-11.9,9.4-22.2,21.3c-10.2,12.8-12.8,15.4-12.8,15.4c-0.9,0.9-2.6,1.7-4.3,2.6h-0.9
				c-7.7,4.3-20.5,0.9-41.8-9.4c-17.9-8.5-34.1-19.6-52.1-35.8c-15.4-13.7-30.7-31.6-39.3-45.2c-11.9-19.6-19.6-41.8-19.6-52.1
				c0-4.3,1.7-10.2,3.4-12.8l0.9-0.9c0,0,0.9-0.9,1.7-1.7c3.4-2.6,7.7-6,11.9-9.4c19.6-15.4,25.6-21.3,29-33.3
				c3.4-11.1,0.9-23.9-8.5-41.8c-13.7-26.5-58-82.8-75.9-94.7c-2.6-2.6-7.7-5.1-11.1-6c-7.7-3.4-17.9-4.3-24.7-2.6
				c-9.4,1.7-19.6,7.7-41.8,24.7c-12.8,8.5-31.6,26.5-36.7,35c-11.9,20.5-8.5,37.5,1.7,67.4c10.2,28.2,23.9,56.3,40.1,84.5l0.9,1.7
				c3.4,5.1,6.8,11.1,10.2,16.2l0.9,1.7c3.4,5.1,6.8,11.1,10.2,16.2l6,8.5c2.6,3.4,4.3,6,6.8,9.4c4.3,6,9.4,11.9,13.7,17.9
				c49.5,64,106.7,116.1,174.1,157.9l2.6,1.7c9.4,6,19.6,11.9,30.7,17.9l4.3,2.6c11.1,6,21.3,11.1,32.4,16.2l3.4,1.7
				c12.8,6,23.9,11.1,35,15.4c13.7,5.1,19.6,6.8,29,6.8c1.7,0,3.4,0,5.1,0c6,0,11.9-0.9,17.1-2.6c7.7-2.6,14.5-6,23-11.9
				c0.9-0.9,2.6-2.6,4.3-3.4c1.7-1.7,4.3-3.4,6-5.1c9.4-7.7,20.5-19.6,29-31.6c4.3-6,10.2-15.4,13.7-23c3.4-6.8,4.3-14.5,4.3-21.3
				C658,597.6,654.5,589.1,648.6,582.3z M638.3,622.4c-1.7,5.1-6,11.9-11.9,19.6c-7.7,11.1-17.9,21.3-26.5,29
				c-1.7,1.7-3.4,3.4-5.1,4.3c-1.7,0.9-2.6,1.7-4.3,2.6c-6.8,5.1-12.8,7.7-17.9,9.4c-4.3,0.9-8.5,1.7-12.8,1.7
				c-9.4,0-12.8,0-26.5-5.1c-10.2-5.1-21.3-9.4-34.1-15.4l-3.4-1.7c-10.2-5.1-21.3-10.2-31.6-16.2L460,648
				c-10.2-5.1-20.5-11.1-29.9-17.1l-2.6-1.7c-66.6-41-122-91.3-169.8-153.6c-4.3-6-8.5-11.9-12.8-17.9c-2.6-3.4-5.1-6-6.8-9.4
				l-5.1-7.7c-4.3-5.1-7.7-10.2-11.1-16.2l-0.9-0.9c-3.4-5.1-6-11.1-9.4-16.2l-0.9-1.7c-16.2-26.5-29-54.6-39.3-81.9
				c-11.9-30.7-10.2-41-3.4-52.9c3.4-5.1,19.6-21.3,32.4-29.9c18.8-14.5,29-20.5,35-21.3c3.4-0.9,11.1,0,15.4,1.7
				c1.7,0.9,5.1,2.6,7.7,4.3c12.8,8.5,55.5,60.6,70,87.9c6.8,12.8,9.4,23,7.7,29c-1.7,6-3.4,9.4-23,24.7c-5.1,3.4-9.4,7.7-12.8,10.2
				c-0.9,0.9-1.7,1.7-2.6,2.6l-0.9,0.9c-0.9,0.9-1.7,0.9-1.7,1.7l-0.9,0.9c-4.3,5.1-6.8,15.4-6.8,23c0.9,15.4,9.4,40.1,22.2,60.6
				c9.4,14.5,26.5,34.1,42.7,48.6c18.8,17.1,35.8,29,55.5,38.4c25.6,11.9,41.8,15.4,55.5,10.2h0.9l1.7-0.9c1.7-0.9,4.3-1.7,5.1-2.6
				c0.9-0.9,1.7-0.9,2.6-1.7c0.9-0.9,1.7-1.7,15.4-17.9c10.2-11.9,13.7-15.4,17.1-17.1c0.9-0.9,2.6-0.9,4.3-1.7
				c9.4-3.4,18.8-2.6,29,2.6c8.5,5.1,28.2,16.2,40.1,24.7c17.9,11.9,52.1,39.3,55.5,43.5c4.3,4.3,6,8.5,6,14.5
				C640.9,612.2,640,617.3,638.3,622.4z"/>
		</g>
	</g>
</g>
</svg>
