<?xml version="1.0" encoding="UTF-8" standalone="no"?>
<!DOCTYPE svg PUBLIC "-//W3C//DTD SVG 1.1//EN" "http://www.w3.org/Graphics/SVG/1.1/DTD/svg11.dtd">
<svg version="1.1" xmlns="http://www.w3.org/2000/svg" xmlns:xlink="http://www.w3.org/1999/xlink" preserveAspectRatio="xMidYMid meet" viewBox="0 0 640 640" width="35" height="35"><defs><path d="M341.02 320.02C516.87 143.2 614.56 44.96 634.1 25.32C639.88 19.5 639.86 10.11 634.05 4.32C628.23 -1.46 618.84 -1.44 613.05 4.37C613.05 4.37 613.05 4.37 613.05 4.37L320.03 299.03C143.23 123.18 45.01 25.49 25.36 5.95C19.55 0.17 10.15 0.19 4.37 6C-1.42 11.81 -1.39 21.21 4.42 26.99C4.42 26.99 4.42 26.99 4.42 26.99L299.04 320.02C123.21 496.82 25.53 595.04 5.99 614.69C0.21 620.5 0.23 629.9 6.04 635.68C11.86 641.46 21.26 641.44 27.04 635.63C46.57 615.99 144.24 517.78 320.03 341C496.8 516.85 595 614.54 614.64 634.08C620.45 639.87 629.85 639.84 635.63 634.03C641.42 628.22 641.4 618.82 635.58 613.04C635.58 613.04 635.58 613.04 635.58 613.04L635.64 613.04L341.02 320.02Z" id="esNdfR8jd"></path></defs><g><g><g><use xlink:href="#esNdfR8jd" opacity="1" fill="#ffffff" fill-opacity="1"></use><g><use xlink:href="#esNdfR8jd" opacity="1" fill-opacity="0" stroke="#000000" stroke-width="1" stroke-opacity="0"></use></g></g></g></g></svg>