<?xml version="1.0" encoding="utf-8"?>
<!-- Generator: Adobe Illustrator 22.0.1, SVG Export Plug-In . SVG Version: 6.00 Build 0)  -->
<svg version="1.1" id="Layer_1" xmlns="http://www.w3.org/2000/svg" xmlns:xlink="http://www.w3.org/1999/xlink" x="0px" y="0px"
	 viewBox="0 0 512 512" style="enable-background:new 0 0 512 512;" xml:space="preserve">
<style type="text/css">
	.st0{fill:#FF6633;stroke:#DF8744;stroke-linecap:round;stroke-miterlimit:10;}
	.st1{fill:#FFFFFF;}
	.st2{fill:#FFFFFF;stroke:#FFFFFF;stroke-width:7;stroke-miterlimit:10;}
</style>
<circle class="st0" cx="259.5" cy="237" r="226.6"/>
<title>ONLINE CHAT</title>
<path class="st1" d="M407.4,186.3H230.6c-12.7,0-23,10.3-23,23v10c0,2.8,2.2,5,5,5s5-2.2,5-5v-10c0-7.2,5.8-13,13-13h176.8
	c7.2,0,13,5.8,13,13v111.3c0,2.8,2.2,5,5,5s5-2.2,5-5V209.3C430.4,196.6,420.1,186.3,407.4,186.3z"/>
<path class="st1" d="M425.4,337c-2.8,0-5,2.2-5,5c0,7.2-5.8,13-13,13H393c-2.8,0-5,2.2-5,5v17.6l-21.1-21.1
	c-0.9-0.9-2.2-1.5-3.5-1.5H230.6c-7.2,0-13-5.8-13-13v-80c0-2.8-2.2-5-5-5s-5,2.2-5,5v8.7h-57.7c-1.3,0-2.6,0.5-3.5,1.5L124,294.5
	v-18.9c0-2.8-2.2-5-5-5h-16c-6.3,0-11.4-5.1-11.4-11.4V138.7c0-6.3,5.1-11.4,11.4-11.4h160.7c6.3,0,11.4,5.1,11.4,11.4v32.6
	c0,2.8,2.2,5,5,5s5-2.2,5-5v-32.6c0-11.8-9.6-21.4-21.4-21.4H103c-11.8,0-21.3,9.6-21.4,21.4v120.6c0,11.8,9.6,21.4,21.4,21.4h11
	v25.9c0,2.8,2.2,5,5,5c1.3,0,2.6-0.5,3.5-1.5l29.5-29.5h55.6V342c0,12.7,10.3,23,23,23h130.7l28.1,28.2c2,2,5.1,2,7.1,0
	c0.9-0.9,1.5-2.2,1.5-3.5V365h9.4c12.7,0,23-10.3,23-23C430.4,339.3,428.2,337,425.4,337L425.4,337z"/>
<path class="st1" d="M212.6,248.3c2.8,0,5-2.2,5-5V242c0-2.8-2.2-5-5-5s-5,2.2-5,5v1.3C207.6,246.1,209.8,248.3,212.6,248.3z"/>
<path class="st1" d="M289.2,273.2c0-11-8.9-19.8-19.8-19.8s-19.8,8.9-19.8,19.8c0,11,8.9,19.8,19.8,19.8c0,0,0,0,0,0
	C280.3,293,289.2,284.1,289.2,273.2z M259.5,273.2c0-5.4,4.4-9.8,9.8-9.8s9.8,4.4,9.8,9.8s-4.4,9.8-9.8,9.8c0,0,0,0,0,0
	C263.9,283,259.5,278.6,259.5,273.2z"/>
<path class="st1" d="M389.5,273.2c0-11-8.9-19.8-19.8-19.8s-19.8,8.9-19.8,19.8s8.9,19.8,19.8,19.8c0,0,0,0,0,0
	C380.6,293,389.5,284.1,389.5,273.2z M359.8,273.2c0-5.4,4.4-9.8,9.8-9.8s9.8,4.4,9.8,9.8s-4.4,9.8-9.8,9.8c0,0,0,0,0,0
	C364.2,283,359.8,278.6,359.8,273.2z"/>
<line x1="122" y1="154" x2="249.5" y2="154"/>
<line class="st2" x1="115" y1="159" x2="245" y2="159"/>
<path class="st1" d="M339.3,272.8c0-11-8.9-19.8-19.8-19.8s-19.8,8.9-19.8,19.8s8.9,19.8,19.8,19.8c0,0,0,0,0,0
	C330.4,292.7,339.3,283.8,339.3,272.8z M309.7,272.8c0-5.4,4.4-9.8,9.8-9.8s9.8,4.4,9.8,9.8s-4.4,9.8-9.8,9.8c0,0,0,0,0,0
	C314.1,282.7,309.7,278.3,309.7,272.8z"/>
<line class="st2" x1="111.8" y1="222.7" x2="192.2" y2="222.7"/>
</svg>
