<?xml version="1.0" encoding="utf-8"?>
<!-- Generator: Adobe Illustrator 22.0.1, SVG Export Plug-In . SVG Version: 6.00 Build 0)  -->
<svg version="1.1" id="Слой_1" xmlns="http://www.w3.org/2000/svg" xmlns:xlink="http://www.w3.org/1999/xlink" x="0px" y="0px"
	 viewBox="0 0 573 576" style="enable-background:new 0 0 573 576;" xml:space="preserve">
<style type="text/css">
	.st0{fill:#FF6633;}
	.st1{fill:#FFFFFF;}
</style>
<circle class="st0" cx="288" cy="288" r="285"/>
<path class="st1" d="M399,59H172c-27.6,0-50,22.4-50,50v355c0,27.6,22.4,50,50,50h227c27.6,0,50-22.4,50-50V109
	C449,81.4,426.6,59,399,59z M429,464c0,16.5-13.5,30-30,30H172c-16.5,0-30-13.5-30-30V109c0-16.5,13.5-30,30-30h227
	c16.5,0,30,13.5,30,30V464z"/>
<path class="st1" d="M311,224h-51c-5.5,0-10,4.5-10,10v45c0,5.5,4.5,10,10,10h51c5.5,0,10-4.5,10-10v-45
	C321,228.5,316.5,224,311,224z M301,269h-31v-25h31V269z"/>
<path class="st1" d="M221,224h-51c-5.5,0-10,4.5-10,10v45c0,5.5,4.5,10,10,10h51c5.5,0,10-4.5,10-10v-45
	C231,228.5,226.5,224,221,224z M211,269h-31v-25h31V269z"/>
<path class="st1" d="M401,224h-51c-5.5,0-10,4.5-10,10v45c0,5.5,4.5,10,10,10h51c5.5,0,10-4.5,10-10v-45
	C411,228.5,406.5,224,401,224z M391,269h-31v-25h31V269z"/>
<path class="st1" d="M311,314h-51c-5.5,0-10,4.5-10,10v45c0,5.5,4.5,10,10,10h51c5.5,0,10-4.5,10-10v-45
	C321,318.5,316.5,314,311,314z M301,359h-31v-25h31V359z"/>
<path class="st1" d="M221,314h-51c-5.5,0-10,4.5-10,10v45c0,5.5,4.5,10,10,10h51c5.5,0,10-4.5,10-10v-45
	C231,318.5,226.5,314,221,314z M211,359h-31v-25h31V359z"/>
<path class="st1" d="M401,314h-51c-5.5,0-10,4.5-10,10v45c0,5.5,4.5,10,10,10h51c5.5,0,10-4.5,10-10v-45
	C411,318.5,406.5,314,401,314z M391,359h-31v-25h31V359z"/>
<path class="st1" d="M311,404h-51c-5.5,0-10,4.5-10,10v45c0,5.5,4.5,10,10,10h51c5.5,0,10-4.5,10-10v-45
	C321,408.5,316.5,404,311,404z M301,449h-31v-25h31V449z"/>
<path class="st1" d="M221,404h-51c-5.5,0-10,4.5-10,10v45c0,5.5,4.5,10,10,10h51c5.5,0,10-4.5,10-10v-45
	C231,408.5,226.5,404,221,404z M211,449h-31v-25h31V449z"/>
<path class="st1" d="M401,404h-51c-5.5,0-10,4.5-10,10v45c0,5.5,4.5,10,10,10h51c5.5,0,10-4.5,10-10v-45
	C411,408.5,406.5,404,401,404z M391,449h-31v-25h31V449z"/>
<path class="st1" d="M401,104H170c-5.5,0-10,4.5-10,10v75c0,5.5,4.5,10,10,10h231c5.5,0,10-4.5,10-10v-75
	C411,108.5,406.5,104,401,104z M391,179H180v-55h211V179z"/>
</svg>
